<mxfile host="app.diagrams.net" modified="2023-06-07T01:36:02.949Z" agent="Mozilla/5.0 (Macintosh; Intel Mac OS X 10_15_7) AppleWebKit/537.36 (KHTML, like Gecko) Chrome/113.0.0.0 Safari/537.36" version="21.3.7" etag="C2sNvHz2B8aNHjJDKieU" type="github">
  <diagram name="Page-1" id="0Q1NWGW6EsoFx8M8zkU0">
    <mxGraphModel>
      <root>
        <mxCell id="0" />
        <mxCell id="1" parent="0" />
      </root>
    </mxGraphModel>
  </diagram>
</mxfile>
